<mxfile host="65bd71144e" pages="2">
    <diagram id="pe0snOJMbtaNUKmXhN9i" name="class hierarchy">
        <mxGraphModel dx="1629" dy="991" grid="1" gridSize="10" guides="1" tooltips="1" connect="1" arrows="1" fold="1" page="1" pageScale="1" pageWidth="1169" pageHeight="827" math="0" shadow="0">
            <root>
                <mxCell id="0"/>
                <mxCell id="1" parent="0"/>
                <mxCell id="t_ACiR91CSKC2Ec1qpF_-11" style="edgeStyle=orthogonalEdgeStyle;rounded=0;orthogonalLoop=1;jettySize=auto;html=1;entryX=0;entryY=0.5;entryDx=0;entryDy=0;exitX=0;exitY=0.5;exitDx=0;exitDy=0;" parent="1" source="t_ACiR91CSKC2Ec1qpF_-1" target="t_ACiR91CSKC2Ec1qpF_-6" edge="1">
                    <mxGeometry relative="1" as="geometry"/>
                </mxCell>
                <mxCell id="t_ACiR91CSKC2Ec1qpF_-1" value="motionItem" style="rounded=0;whiteSpace=wrap;html=1;" parent="1" vertex="1">
                    <mxGeometry x="80" y="40" width="600" height="60" as="geometry"/>
                </mxCell>
                <mxCell id="t_ACiR91CSKC2Ec1qpF_-2" value="passed" style="rounded=0;whiteSpace=wrap;html=1;" parent="1" vertex="1">
                    <mxGeometry x="420" y="210" width="120" height="60" as="geometry"/>
                </mxCell>
                <mxCell id="t_ACiR91CSKC2Ec1qpF_-3" value="acceleration / deceleration" style="rounded=0;whiteSpace=wrap;html=1;" parent="1" vertex="1">
                    <mxGeometry x="540" y="210" width="170" height="60" as="geometry"/>
                </mxCell>
                <mxCell id="t_ACiR91CSKC2Ec1qpF_-4" value="cruise" style="rounded=0;whiteSpace=wrap;html=1;" parent="1" vertex="1">
                    <mxGeometry x="710" y="210" width="150" height="60" as="geometry"/>
                </mxCell>
                <mxCell id="t_ACiR91CSKC2Ec1qpF_-5" value="acceleration / deceleration" style="rounded=0;whiteSpace=wrap;html=1;" parent="1" vertex="1">
                    <mxGeometry x="860" y="210" width="160" height="60" as="geometry"/>
                </mxCell>
                <mxCell id="t_ACiR91CSKC2Ec1qpF_-6" value="trajectory" style="rounded=0;whiteSpace=wrap;html=1;" parent="1" vertex="1">
                    <mxGeometry x="160" y="140" width="220" height="60" as="geometry"/>
                </mxCell>
                <mxCell id="t_ACiR91CSKC2Ec1qpF_-10" style="edgeStyle=orthogonalEdgeStyle;rounded=0;orthogonalLoop=1;jettySize=auto;html=1;entryX=0;entryY=0.5;entryDx=0;entryDy=0;" parent="1" source="t_ACiR91CSKC2Ec1qpF_-7" target="t_ACiR91CSKC2Ec1qpF_-2" edge="1">
                    <mxGeometry relative="1" as="geometry"/>
                </mxCell>
                <mxCell id="t_ACiR91CSKC2Ec1qpF_-7" value="speedprofile" style="rounded=0;whiteSpace=wrap;html=1;" parent="1" vertex="1">
                    <mxGeometry x="160" y="210" width="220" height="60" as="geometry"/>
                </mxCell>
                <mxCell id="t_ACiR91CSKC2Ec1qpF_-8" value="peripherals" style="rounded=0;whiteSpace=wrap;html=1;" parent="1" vertex="1">
                    <mxGeometry x="160" y="280" width="220" height="60" as="geometry"/>
                </mxCell>
                <mxCell id="t_ACiR91CSKC2Ec1qpF_-12" style="edgeStyle=orthogonalEdgeStyle;rounded=0;orthogonalLoop=1;jettySize=auto;html=1;entryX=0;entryY=0.5;entryDx=0;entryDy=0;exitX=0;exitY=0.5;exitDx=0;exitDy=0;" parent="1" source="t_ACiR91CSKC2Ec1qpF_-1" target="t_ACiR91CSKC2Ec1qpF_-7" edge="1">
                    <mxGeometry relative="1" as="geometry">
                        <mxPoint x="90" y="80" as="sourcePoint"/>
                        <mxPoint x="170" y="180" as="targetPoint"/>
                    </mxGeometry>
                </mxCell>
                <mxCell id="t_ACiR91CSKC2Ec1qpF_-13" style="edgeStyle=orthogonalEdgeStyle;rounded=0;orthogonalLoop=1;jettySize=auto;html=1;entryX=0;entryY=0.5;entryDx=0;entryDy=0;exitX=0;exitY=0.5;exitDx=0;exitDy=0;" parent="1" source="t_ACiR91CSKC2Ec1qpF_-1" target="t_ACiR91CSKC2Ec1qpF_-8" edge="1">
                    <mxGeometry relative="1" as="geometry">
                        <mxPoint x="100" y="90" as="sourcePoint"/>
                        <mxPoint x="180" y="190" as="targetPoint"/>
                    </mxGeometry>
                </mxCell>
            </root>
        </mxGraphModel>
    </diagram>
    <diagram id="MMscCRt7Aygrj5DTU5od" name="speedprofile">
        <mxGraphModel dx="1629" dy="991" grid="1" gridSize="10" guides="1" tooltips="1" connect="1" arrows="1" fold="1" page="1" pageScale="1" pageWidth="1169" pageHeight="827" math="0" shadow="0">
            <root>
                <mxCell id="0"/>
                <mxCell id="1" parent="0"/>
                <mxCell id="Ztr4fT0FK_gGZih4Mwcf-1" value="" style="endArrow=classic;html=1;rounded=0;" parent="1" edge="1">
                    <mxGeometry width="50" height="50" relative="1" as="geometry">
                        <mxPoint x="40" y="200" as="sourcePoint"/>
                        <mxPoint x="360" y="200" as="targetPoint"/>
                    </mxGeometry>
                </mxCell>
                <mxCell id="Ztr4fT0FK_gGZih4Mwcf-2" value="&lt;b&gt;first order&lt;/b&gt;" style="rounded=0;whiteSpace=wrap;html=1;" parent="1" vertex="1">
                    <mxGeometry x="40" y="40" width="120" height="40" as="geometry"/>
                </mxCell>
                <mxCell id="Ztr4fT0FK_gGZih4Mwcf-3" value="&lt;b&gt;second order&lt;/b&gt;" style="rounded=0;whiteSpace=wrap;html=1;" parent="1" vertex="1">
                    <mxGeometry x="600" y="40" width="120" height="40" as="geometry"/>
                </mxCell>
                <mxCell id="Ztr4fT0FK_gGZih4Mwcf-4" value="" style="endArrow=none;html=1;rounded=0;entryX=0;entryY=1;entryDx=0;entryDy=0;" parent="1" edge="1">
                    <mxGeometry width="50" height="50" relative="1" as="geometry">
                        <mxPoint x="40" y="200" as="sourcePoint"/>
                        <mxPoint x="40" y="120" as="targetPoint"/>
                    </mxGeometry>
                </mxCell>
                <mxCell id="Ztr4fT0FK_gGZih4Mwcf-5" value="" style="endArrow=classic;html=1;rounded=0;" parent="1" edge="1">
                    <mxGeometry width="50" height="50" relative="1" as="geometry">
                        <mxPoint x="40" y="400" as="sourcePoint"/>
                        <mxPoint x="360" y="400" as="targetPoint"/>
                    </mxGeometry>
                </mxCell>
                <mxCell id="Ztr4fT0FK_gGZih4Mwcf-6" value="" style="endArrow=none;html=1;rounded=0;entryX=0;entryY=1;entryDx=0;entryDy=0;" parent="1" edge="1">
                    <mxGeometry width="50" height="50" relative="1" as="geometry">
                        <mxPoint x="40" y="400" as="sourcePoint"/>
                        <mxPoint x="40" y="320" as="targetPoint"/>
                    </mxGeometry>
                </mxCell>
                <mxCell id="Ztr4fT0FK_gGZih4Mwcf-7" value="a(t)" style="text;html=1;strokeColor=none;fillColor=none;align=center;verticalAlign=middle;whiteSpace=wrap;rounded=0;" parent="1" vertex="1">
                    <mxGeometry x="30" y="90" width="20" height="30" as="geometry"/>
                </mxCell>
                <mxCell id="Ztr4fT0FK_gGZih4Mwcf-8" value="v(t)" style="text;html=1;strokeColor=none;fillColor=none;align=center;verticalAlign=middle;whiteSpace=wrap;rounded=0;" parent="1" vertex="1">
                    <mxGeometry x="30" y="290" width="20" height="30" as="geometry"/>
                </mxCell>
                <mxCell id="Ztr4fT0FK_gGZih4Mwcf-10" value="" style="endArrow=classic;html=1;rounded=0;" parent="1" edge="1">
                    <mxGeometry width="50" height="50" relative="1" as="geometry">
                        <mxPoint x="40" y="600" as="sourcePoint"/>
                        <mxPoint x="360" y="600" as="targetPoint"/>
                    </mxGeometry>
                </mxCell>
                <mxCell id="Ztr4fT0FK_gGZih4Mwcf-11" value="" style="endArrow=none;html=1;rounded=0;entryX=0.5;entryY=1;entryDx=0;entryDy=0;" parent="1" target="Ztr4fT0FK_gGZih4Mwcf-12" edge="1">
                    <mxGeometry width="50" height="50" relative="1" as="geometry">
                        <mxPoint x="40" y="600" as="sourcePoint"/>
                        <mxPoint x="40" y="520" as="targetPoint"/>
                    </mxGeometry>
                </mxCell>
                <mxCell id="Ztr4fT0FK_gGZih4Mwcf-12" value="s(t)" style="text;html=1;strokeColor=none;fillColor=none;align=center;verticalAlign=middle;whiteSpace=wrap;rounded=0;" parent="1" vertex="1">
                    <mxGeometry x="30" y="409.52" width="20" height="30" as="geometry"/>
                </mxCell>
                <mxCell id="Ztr4fT0FK_gGZih4Mwcf-13" value="" style="endArrow=classic;html=1;rounded=0;" parent="1" edge="1">
                    <mxGeometry width="50" height="50" relative="1" as="geometry">
                        <mxPoint x="600" y="200" as="sourcePoint"/>
                        <mxPoint x="1080" y="200" as="targetPoint"/>
                    </mxGeometry>
                </mxCell>
                <mxCell id="Ztr4fT0FK_gGZih4Mwcf-14" value="" style="endArrow=none;html=1;rounded=0;entryX=0;entryY=1;entryDx=0;entryDy=0;" parent="1" edge="1">
                    <mxGeometry width="50" height="50" relative="1" as="geometry">
                        <mxPoint x="600" y="200" as="sourcePoint"/>
                        <mxPoint x="600" y="120" as="targetPoint"/>
                    </mxGeometry>
                </mxCell>
                <mxCell id="Ztr4fT0FK_gGZih4Mwcf-15" value="" style="endArrow=classic;html=1;rounded=0;" parent="1" edge="1">
                    <mxGeometry width="50" height="50" relative="1" as="geometry">
                        <mxPoint x="600" y="400" as="sourcePoint"/>
                        <mxPoint x="1080" y="400" as="targetPoint"/>
                    </mxGeometry>
                </mxCell>
                <mxCell id="Ztr4fT0FK_gGZih4Mwcf-16" value="" style="endArrow=none;html=1;rounded=0;entryX=0;entryY=1;entryDx=0;entryDy=0;" parent="1" edge="1">
                    <mxGeometry width="50" height="50" relative="1" as="geometry">
                        <mxPoint x="600" y="400" as="sourcePoint"/>
                        <mxPoint x="600" y="320" as="targetPoint"/>
                    </mxGeometry>
                </mxCell>
                <mxCell id="Ztr4fT0FK_gGZih4Mwcf-17" value="v(t)" style="text;html=1;strokeColor=none;fillColor=none;align=center;verticalAlign=middle;whiteSpace=wrap;rounded=0;" parent="1" vertex="1">
                    <mxGeometry x="590" y="290" width="20" height="30" as="geometry"/>
                </mxCell>
                <mxCell id="Ztr4fT0FK_gGZih4Mwcf-18" value="" style="endArrow=classic;html=1;rounded=0;" parent="1" edge="1">
                    <mxGeometry width="50" height="50" relative="1" as="geometry">
                        <mxPoint x="600" y="600" as="sourcePoint"/>
                        <mxPoint x="1080" y="600" as="targetPoint"/>
                    </mxGeometry>
                </mxCell>
                <mxCell id="Ztr4fT0FK_gGZih4Mwcf-19" value="" style="endArrow=none;html=1;rounded=0;entryX=0.5;entryY=1;entryDx=0;entryDy=0;" parent="1" target="Ztr4fT0FK_gGZih4Mwcf-20" edge="1">
                    <mxGeometry width="50" height="50" relative="1" as="geometry">
                        <mxPoint x="600" y="600" as="sourcePoint"/>
                        <mxPoint x="600" y="520" as="targetPoint"/>
                    </mxGeometry>
                </mxCell>
                <mxCell id="Ztr4fT0FK_gGZih4Mwcf-20" value="s(t)" style="text;html=1;strokeColor=none;fillColor=none;align=center;verticalAlign=middle;whiteSpace=wrap;rounded=0;" parent="1" vertex="1">
                    <mxGeometry x="590" y="409.52" width="20" height="30" as="geometry"/>
                </mxCell>
                <mxCell id="Ztr4fT0FK_gGZih4Mwcf-23" value="" style="endArrow=none;html=1;rounded=0;strokeColor=#FF0000;strokeWidth=2;" parent="1" edge="1">
                    <mxGeometry width="50" height="50" relative="1" as="geometry">
                        <mxPoint x="40" y="200" as="sourcePoint"/>
                        <mxPoint x="280" y="200" as="targetPoint"/>
                        <Array as="points">
                            <mxPoint x="40" y="120"/>
                            <mxPoint x="120" y="120"/>
                            <mxPoint x="120" y="200"/>
                            <mxPoint x="200" y="200"/>
                            <mxPoint x="200" y="280"/>
                            <mxPoint x="280" y="280"/>
                        </Array>
                    </mxGeometry>
                </mxCell>
                <mxCell id="Ztr4fT0FK_gGZih4Mwcf-24" value="" style="endArrow=none;html=1;rounded=0;strokeColor=#FF0000;strokeWidth=2;" parent="1" edge="1">
                    <mxGeometry width="50" height="50" relative="1" as="geometry">
                        <mxPoint x="40.000000000000114" y="399.9999999999999" as="sourcePoint"/>
                        <mxPoint x="280" y="399.9999999999999" as="targetPoint"/>
                        <Array as="points">
                            <mxPoint x="120" y="320"/>
                            <mxPoint x="200" y="320"/>
                        </Array>
                    </mxGeometry>
                </mxCell>
                <mxCell id="Ztr4fT0FK_gGZih4Mwcf-26" value="" style="endArrow=none;html=1;rounded=0;strokeColor=#0000FF;strokeWidth=2;" parent="1" edge="1">
                    <mxGeometry width="50" height="50" relative="1" as="geometry">
                        <mxPoint x="120" y="560" as="sourcePoint"/>
                        <mxPoint x="200" y="480" as="targetPoint"/>
                        <Array as="points"/>
                    </mxGeometry>
                </mxCell>
                <mxCell id="Ztr4fT0FK_gGZih4Mwcf-27" value="" style="curved=1;endArrow=none;html=1;rounded=0;strokeColor=#FF0000;strokeWidth=2;endFill=0;" parent="1" edge="1">
                    <mxGeometry width="50" height="50" relative="1" as="geometry">
                        <mxPoint x="40" y="600" as="sourcePoint"/>
                        <mxPoint x="120" y="560" as="targetPoint"/>
                        <Array as="points">
                            <mxPoint x="90" y="590"/>
                        </Array>
                    </mxGeometry>
                </mxCell>
                <mxCell id="Ztr4fT0FK_gGZih4Mwcf-28" value="" style="curved=1;endArrow=none;html=1;rounded=0;strokeColor=#FF0000;strokeWidth=2;endFill=0;" parent="1" edge="1">
                    <mxGeometry width="50" height="50" relative="1" as="geometry">
                        <mxPoint x="200" y="479.5200000000001" as="sourcePoint"/>
                        <mxPoint x="280" y="439.52" as="targetPoint"/>
                        <Array as="points">
                            <mxPoint x="230" y="450"/>
                        </Array>
                    </mxGeometry>
                </mxCell>
                <mxCell id="Ztr4fT0FK_gGZih4Mwcf-29" value="" style="endArrow=none;html=1;rounded=0;strokeColor=#FF0000;strokeWidth=2;" parent="1" edge="1">
                    <mxGeometry width="50" height="50" relative="1" as="geometry">
                        <mxPoint x="600" y="200" as="sourcePoint"/>
                        <mxPoint x="960" y="200" as="targetPoint"/>
                        <Array as="points">
                            <mxPoint x="660" y="120"/>
                            <mxPoint x="700" y="120"/>
                            <mxPoint x="760" y="200"/>
                            <mxPoint x="800" y="200"/>
                            <mxPoint x="860" y="280"/>
                            <mxPoint x="900" y="280"/>
                        </Array>
                    </mxGeometry>
                </mxCell>
                <mxCell id="Ztr4fT0FK_gGZih4Mwcf-30" value="a(t)" style="text;html=1;strokeColor=none;fillColor=none;align=center;verticalAlign=middle;whiteSpace=wrap;rounded=0;" parent="1" vertex="1">
                    <mxGeometry x="590" y="90" width="20" height="30" as="geometry"/>
                </mxCell>
                <mxCell id="Ztr4fT0FK_gGZih4Mwcf-31" value="" style="endArrow=none;html=1;rounded=0;strokeColor=#0000FF;strokeWidth=2;" parent="1" edge="1">
                    <mxGeometry width="50" height="50" relative="1" as="geometry">
                        <mxPoint x="760" y="540" as="sourcePoint"/>
                        <mxPoint x="800" y="500" as="targetPoint"/>
                        <Array as="points"/>
                    </mxGeometry>
                </mxCell>
                <mxCell id="Ztr4fT0FK_gGZih4Mwcf-32" value="" style="curved=1;endArrow=none;html=1;rounded=0;strokeColor=#FF0000;strokeWidth=2;endFill=0;" parent="1" edge="1">
                    <mxGeometry width="50" height="50" relative="1" as="geometry">
                        <mxPoint x="600" y="600" as="sourcePoint"/>
                        <mxPoint x="760" y="540" as="targetPoint"/>
                        <Array as="points">
                            <mxPoint x="630" y="600"/>
                            <mxPoint x="720" y="580"/>
                        </Array>
                    </mxGeometry>
                </mxCell>
                <mxCell id="Ztr4fT0FK_gGZih4Mwcf-33" value="" style="curved=1;endArrow=none;html=1;rounded=0;strokeColor=#FF0000;strokeWidth=2;endFill=0;" parent="1" edge="1">
                    <mxGeometry width="50" height="50" relative="1" as="geometry">
                        <mxPoint x="800" y="500" as="sourcePoint"/>
                        <mxPoint x="960" y="439.52" as="targetPoint"/>
                        <Array as="points">
                            <mxPoint x="840" y="460"/>
                            <mxPoint x="920" y="440"/>
                        </Array>
                    </mxGeometry>
                </mxCell>
                <mxCell id="-StfS3zQlDfVLs9HBWsy-1" value="" style="endArrow=none;html=1;rounded=0;strokeColor=#0000FF;strokeWidth=2;" parent="1" edge="1">
                    <mxGeometry width="50" height="50" relative="1" as="geometry">
                        <mxPoint x="660" y="360" as="sourcePoint"/>
                        <mxPoint x="700" y="320" as="targetPoint"/>
                        <Array as="points"/>
                    </mxGeometry>
                </mxCell>
                <mxCell id="-StfS3zQlDfVLs9HBWsy-2" value="" style="curved=1;endArrow=none;html=1;rounded=0;strokeColor=#FF0000;strokeWidth=2;endFill=0;" parent="1" edge="1">
                    <mxGeometry width="50" height="50" relative="1" as="geometry">
                        <mxPoint x="600" y="400.48000000000013" as="sourcePoint"/>
                        <mxPoint x="660" y="360" as="targetPoint"/>
                        <Array as="points">
                            <mxPoint x="620" y="400"/>
                            <mxPoint x="640" y="380"/>
                        </Array>
                    </mxGeometry>
                </mxCell>
                <mxCell id="-StfS3zQlDfVLs9HBWsy-3" value="" style="curved=1;endArrow=none;html=1;rounded=0;strokeColor=#FF0000;strokeWidth=2;endFill=0;" parent="1" edge="1">
                    <mxGeometry width="50" height="50" relative="1" as="geometry">
                        <mxPoint x="700" y="320" as="sourcePoint"/>
                        <mxPoint x="760" y="280" as="targetPoint"/>
                        <Array as="points">
                            <mxPoint x="740" y="280"/>
                        </Array>
                    </mxGeometry>
                </mxCell>
                <mxCell id="-StfS3zQlDfVLs9HBWsy-4" value="" style="endArrow=none;html=1;rounded=0;strokeColor=#0000FF;strokeWidth=2;" parent="1" edge="1">
                    <mxGeometry width="50" height="50" relative="1" as="geometry">
                        <mxPoint x="800" y="280" as="sourcePoint"/>
                        <mxPoint x="760" y="280" as="targetPoint"/>
                        <Array as="points"/>
                    </mxGeometry>
                </mxCell>
                <mxCell id="-StfS3zQlDfVLs9HBWsy-5" value="" style="curved=1;endArrow=none;html=1;rounded=0;strokeColor=#FF0000;strokeWidth=2;endFill=0;" parent="1" edge="1">
                    <mxGeometry width="50" height="50" relative="1" as="geometry">
                        <mxPoint x="960" y="400" as="sourcePoint"/>
                        <mxPoint x="900" y="360" as="targetPoint"/>
                        <Array as="points">
                            <mxPoint x="940" y="400"/>
                            <mxPoint x="920" y="380"/>
                        </Array>
                    </mxGeometry>
                </mxCell>
                <mxCell id="-StfS3zQlDfVLs9HBWsy-6" value="" style="curved=1;endArrow=none;html=1;rounded=0;strokeColor=#FF0000;strokeWidth=2;endFill=0;" parent="1" edge="1">
                    <mxGeometry width="50" height="50" relative="1" as="geometry">
                        <mxPoint x="860" y="320" as="sourcePoint"/>
                        <mxPoint x="800" y="280" as="targetPoint"/>
                        <Array as="points">
                            <mxPoint x="840" y="300"/>
                            <mxPoint x="820" y="280"/>
                        </Array>
                    </mxGeometry>
                </mxCell>
                <mxCell id="-StfS3zQlDfVLs9HBWsy-7" value="" style="endArrow=none;html=1;rounded=0;strokeColor=#0000FF;strokeWidth=2;" parent="1" edge="1">
                    <mxGeometry width="50" height="50" relative="1" as="geometry">
                        <mxPoint x="900" y="360" as="sourcePoint"/>
                        <mxPoint x="860" y="320" as="targetPoint"/>
                        <Array as="points"/>
                    </mxGeometry>
                </mxCell>
            </root>
        </mxGraphModel>
    </diagram>
</mxfile>